# xmcd
#
# Track frame offsets:
#	150
#	13950
#	35850
#	53485
#	72910
#	86250
#	114525
#	130587
#	145212
#	165762
#	184185
#	207210
#
# Disc length: 3027 seconds
#
# Revision: 0
# Processed by: cddbd v1.5PL3 Copyright (c) Steve Scherf et al.
# Submitted via: EasyCDDAExtractor 4.6.9.1
#
DISCID=9d0bd10c
DTITLE=한국컨티넨탈싱어즈 - XP3
DYEAR=2004
DGENRE=gospel
TTITLE0=Power Up
TTITLE1=Joy(To the world)
TTITLE2=새로운 기회(Second Chances)
TTITLE3=내게 다가와 주세요(Small Enough)
TTITLE4=기도의 능력(There is Power-New Version)
TTITLE5=우리를 위한 시작(End of the beginning)
TTITLE6=주 나의 생명(Jesus is Life)
TTITLE7=구속(Shakles)
TTITLE8=한없는 사랑(No Greater Love)
TTITLE9=회복하소서(Revive Us)
TTITLE10=Speechless(미국컨티넨탈-보너스 트랙)
TTITLE11=The Call(미국컨티넨탈-보너스 트랙)
EXTD=
EXTT0=
EXTT1=
EXTT2=
EXTT3=
EXTT4=
EXTT5=
EXTT6=
EXTT7=
EXTT8=
EXTT9=
EXTT10=
EXTT11=
PLAYORDER=
